# xmcd CD database file
#
# Track frame offsets:
#	150
#	30206
#	60812
#	88402
#	136750
#	152386
#	168449
#	188126
#
# Disc length: 2763 seconds
#
# Revision: 0
# Processed by: cddbd v1.5.2PL0 Copyright (c) Steve Scherf et al.
# Submitted via: CDex 1.51
#
DISCID=520ac908
DTITLE=Troc - Troc
DYEAR=1972
DGENRE=Jazz
TTITLE0=Kali Lo
TTITLE1=Truth Verite
TTITLE2=Old Man River
TTITLE3=Stick Time
TTITLE4=Troc
TTITLE5=Plum
TTITLE6=Maybe Tomorrow, Not Today,
TTITLE7=Did You Ever
EXTD=YEAR: 1972
EXTT0=
EXTT1=
EXTT2=
EXTT3=
EXTT4=
EXTT5=
EXTT6=
EXTT7=
PLAYORDER=
